<?xml version="1.0" encoding="UTF-8" standalone="no"?>
<!DOCTYPE svg PUBLIC "-//W3C//DTD SVG 1.1//EN"
 "http://www.w3.org/Graphics/SVG/1.1/DTD/svg11.dtd">
<!-- Generated by graphviz version 2.38.0 (20140413.2041)
 -->
<!-- Title: dependency&#45;cruiser output Pages: 1 -->
<svg width="170pt" height="136pt"
 viewBox="0.00 0.00 170.00 136.00" xmlns="http://www.w3.org/2000/svg" xmlns:xlink="http://www.w3.org/1999/xlink">
<g id="graph0" class="graph" transform="scale(1 1) rotate(0) translate(4 132)">
<title>dependency&#45;cruiser output</title>
<g id="clust1" class="cluster"><title>cluster_src</title>
<path fill="#ffffff" stroke="black" stroke-width="2" d="M23,-68C23,-68 142,-68 142,-68 148,-68 154,-74 154,-80 154,-80 154,-108 154,-108 154,-114 148,-120 142,-120 142,-120 23,-120 23,-120 17,-120 11,-114 11,-108 11,-108 11,-80 11,-80 11,-74 17,-68 23,-68"/>
<text text-anchor="middle" x="82.5" y="-108.8" font-family="Helvetica,sans-Serif" font-weight="bold" font-size="9.00">src</text>
</g>
<g id="clust2" class="cluster"><title>cluster_test</title>
<path fill="#ffffff" stroke="black" stroke-width="2" d="M20,-8C20,-8 72,-8 72,-8 78,-8 84,-14 84,-20 84,-20 84,-48 84,-48 84,-54 78,-60 72,-60 72,-60 20,-60 20,-60 14,-60 8,-54 8,-48 8,-48 8,-20 8,-20 8,-14 14,-8 20,-8"/>
<text text-anchor="middle" x="46" y="-48.8" font-family="Helvetica,sans-Serif" font-weight="bold" font-size="9.00">test</text>
</g>
<!-- src/app.js -->
<g id="node1" class="node"><title>src/app.js</title>
<g id="a_node1"><a xlink:href="src/app.js" xlink:title="app.js">
<path fill="#ffffcc" stroke="black" d="M67,-94C67,-94 25,-94 25,-94 22,-94 19,-91 19,-88 19,-88 19,-82 19,-82 19,-79 22,-76 25,-76 25,-76 67,-76 67,-76 70,-76 73,-79 73,-82 73,-82 73,-88 73,-88 73,-91 70,-94 67,-94"/>
<text text-anchor="middle" x="46" y="-82.8" font-family="Helvetica,sans-Serif" font-size="9.00">app.js</text>
</a>
</g>
</g>
<!-- src/calc.js -->
<g id="node2" class="node"><title>src/calc.js</title>
<g id="a_node2"><a xlink:href="src/calc.js" xlink:title="calc.js">
<path fill="#ffffcc" stroke="black" d="M140,-94C140,-94 98,-94 98,-94 95,-94 92,-91 92,-88 92,-88 92,-82 92,-82 92,-79 95,-76 98,-76 98,-76 140,-76 140,-76 143,-76 146,-79 146,-82 146,-82 146,-88 146,-88 146,-91 143,-94 140,-94"/>
<text text-anchor="middle" x="119" y="-82.8" font-family="Helvetica,sans-Serif" font-size="9.00">calc.js</text>
</a>
</g>
</g>
<!-- src/app.js&#45;&gt;src/calc.js -->
<g id="edge1" class="edge"><title>src/app.js&#45;&gt;src/calc.js</title>
<path fill="none" stroke="#999999" d="M73.0346,-85C77.4722,-85 82.1226,-85 86.6799,-85"/>
<polygon fill="#999999" stroke="#999999" points="86.9686,-86.7501 91.9685,-85 86.9685,-83.2501 86.9686,-86.7501"/>
</g>
<!-- test/calc.test.js -->
<g id="node3" class="node"><title>test/calc.test.js</title>
<g id="a_node3"><a xlink:href="test/calc.test.js" xlink:title="calc.test.js">
<path fill="#ffffcc" stroke="black" d="M70,-34C70,-34 22,-34 22,-34 19,-34 16,-31 16,-28 16,-28 16,-22 16,-22 16,-19 19,-16 22,-16 22,-16 70,-16 70,-16 73,-16 76,-19 76,-22 76,-22 76,-28 76,-28 76,-31 73,-34 70,-34"/>
<text text-anchor="middle" x="46" y="-22.8" font-family="Helvetica,sans-Serif" font-size="9.00">calc.test.js</text>
</a>
</g>
</g>
<!-- test/calc.test.js&#45;&gt;src/calc.js -->
<g id="edge2" class="edge"><title>test/calc.test.js&#45;&gt;src/calc.js</title>
<path fill="none" stroke="#999999" d="M57.7834,-34.1127C69.8771,-44.3328 89.5683,-60.9732 103.121,-72.4265"/>
<polygon fill="#999999" stroke="#999999" points="102.167,-73.9108 107.115,-75.8015 104.426,-71.2376 102.167,-73.9108"/>
</g>
</g>
</svg>
